<?xml version="1.0" encoding="UTF-8"?>
<svg id="Layer_1" xmlns="http://www.w3.org/2000/svg" xmlns:xlink="http://www.w3.org/1999/xlink" viewBox="0 0 395.35 370.28">
	<path id="refresh" class="cls-1" d="M181.62,7.05c100.3,0,181.61,81.31,181.61,181.61h32.12l-74.21,74.2-74.18-74.17h32.13v-.02c0-53.83-43.65-97.47-97.48-97.47s-97.47,43.64-97.47,97.47,43.64,97.47,97.47,97.47c2.02,0,4.02-.07,6.01-.19v84.23c-2,.06-4,.11-6.01,.11C81.31,370.28,0,288.97,0,188.66S81.31,7.05,181.62,7.05h0Z" />
	<rect id="rectangle" class="cls-3" x="13.99" y="4.47" width="29.55" height="29.55" />
	<circle id="circle" class="cls-2" cx="79.28" cy="10.31" r="10.31" />
</svg>
